<?xml version="1.0" encoding="utf-8"?>
<!-- Generator: Adobe Illustrator 26.5.0, SVG Export Plug-In . SVG Version: 6.00 Build 0)  -->
<svg version="1.1" id="Logo_LPO" xmlns="http://www.w3.org/2000/svg" xmlns:xlink="http://www.w3.org/1999/xlink" x="0px" y="0px"
	 viewBox="0 0 990.55 479.12" style="enable-background:new 0 0 990.55 479.12;" xml:space="preserve">
<style type="text/css">
	.st0{fill:none;}
	.st1{fill:#0087CD;}
	.st2{fill:#FFFFFF;}
	.st3{fill:#191919;}
	.st4{fill:#F55F19;}
</style>
<rect class="st0" width="990.55" height="479.12"/>
<g>
	<rect x="652.55" y="89.17" class="st1" width="283.46" height="247.96"/>
	<path class="st2" d="M736.11,296.55h-33.27v-59.33h-21.27v78.25h54.54V296.55z M771.14,294.85h15.09
		c15.91,0,28.81-12.9,28.81-28.81c0-15.91-12.9-28.81-28.81-28.81h-36.36v78.25h21.27V294.85z M771.14,256.14h14.51
		c4.76,0,8.63,4.44,8.63,9.9s-3.87,9.9-8.63,9.9h-14.51V256.14z M867.98,319.22c23.68,0,42.88-19.2,42.88-42.88
		c0-23.68-19.2-42.88-42.88-42.88c-23.68,0-42.88,19.2-42.88,42.88C825.1,300.03,844.3,319.22,867.98,319.22z M867.98,254.88
		c11.86,0,21.46,9.61,21.46,21.46c0,11.86-9.61,21.46-21.46,21.46s-21.46-9.61-21.46-21.46
		C846.51,264.49,856.12,254.88,867.98,254.88z"/>
	<path class="st3" d="M904.59,168.36c-4.44-32.28-32.8-57.23-53.27-69.29c-2.32-1.37-3.75-3.86-3.68-6.55
		c0.28-10.21-0.35-18.05-4.8-25.06c-5.49-8.95-18.04-15.66-31.81-11.23c-6.13,1.97-10.55,5.47-13.52,8.66
		c-0.68-0.83-1.46-1.64-2.34-2.43c-6.4-5.75-16.01-8.65-25.72-7.75c-8.03,0.74-16.06,5.58-20.95,12.62
		c-3.81,5.47-7.57,14.86-3.9,28.51c1.64,6.1-2.3,11.47-12.4,16.89c-30.14,16.17-42.65,47.97-48,61.56c0,0-15.34,14.04-16.24,14.85
		c9.3,4.92,39.16,19.45,60.52,15.97c2.99,2.71,11.49,10.41,16.41,14.33c0.69,0.4,2.49,0.67,4.46,0.67c2.43,0,5.24-0.5,6.51-2.38
		l0.37-0.56c0.56-1.08,1.2-2.91,2.18-5.73c1.83-5.29,4.6-13.27,7.71-16.42c6.16-5.56,26.04-23.72,33.26-43.6
		c4.99,28.99,23.98,45.59,23.98,45.59l7.16-0.23l1.72-5.41c12.88,22.75,14.2,23.17,14.77,23.35c0.24,0.08,0.55,0.14,0.92,0.19
		l8.15-0.21c0.14-0.03,0.27-0.06,0.39-0.1c2.37-0.71,8.38-10.07,13.08-18.2c8.1,0.67,30.72-0.71,50.11-15.64
		C919.08,180.28,904.59,168.36,904.59,168.36z"/>
	<path class="st2" d="M782.98,128.31c-29.53,19.85-33.5,55.35-52.3,75.32c3.49,3.16,14.42,13,15.48,13.61
		c0.94,0.38,6.47,0.73,7.61-0.94c0.48-0.7,1.32-3.14,2.21-5.71c1.55-4.47,3.54-10.21,5.97-14.25c-2.47,0.83-5.03,1.16-7.5,0.82
		c8.87-1.33,17.43-9.93,31.83-27.45c5.34-7.53,10.39-15.13,12.22-24.71c-0.21-4.8-0.63-11.64,0.54-21.01
		C792.65,126.49,787.06,127.48,782.98,128.31z M847.38,152.14c-10.1-8.21-21.52-17.49-29.59-40.29l-2.35,0.81
		c-3.73,6.27-11.62,9.24-13.61,10.23c-6.83,42.12,19.14,68.32,22.51,71.51l4.26-0.06l2.29-7.21c-3.38-0.84-6.66-2.29-9.99-6.26
		c3.46,2.11,7.03,3.33,10.68,4.08l1.47,2.56c6.19,10.99,13.41,23.21,14.94,24.79c2.16,0.4,6.4,0.21,7.74-0.18
		c1.12-0.57,5.63-6.84,11.99-17.71l0.26-0.45C868.93,167.05,854.81,158.32,847.38,152.14z M770.46,97.61
		c4,1.94,8.18,2.66,12.06,2.73c2.11-6.8,5.32-10.93,6.18-11.95c0.24-0.72,0.58-1.35,1-1.86l0.01-0.04c0.01-0.03,0.41-2.56,0.39-6.28
		c-0.01-2.22,0.74-4.91,2.08-7.65c-1.11-1.41-2.35-2.54-3.71-3.4c-5.93-3.75-13.56-1.85-20.93-0.01c-4.94,1.23-9.65,2.4-13.74,1.88
		C756.2,84.47,761.81,93.41,770.46,97.61z M813,108.24c0.8,0.25,3.84,1.07,3.84,1.07s0.24,0.03,0.38-0.01l2.2-0.63
		c5.7-1.96,10.15-5.85,13.29-11.61c5-9.19,5.02-19.97,4.64-22.79c-3.37,0.52-7.43,0.11-11.68-0.48
		c-14.78-2.05-26.19-0.74-29.81,15.75C794.29,99.98,802.51,104.78,813,108.24z M813.37,111.05c-4.4-1.43-21.4-5.5-20.28-20.76
		c0.04-1.71-0.4-3.09-1.19-2.34c-0.53,0.45-0.89,1.71-0.89,1.71s-12.03,13.31-6.2,35.64c2.57-0.51,9.04-1.93,15.26-4.49
		C806.88,118.03,811.47,114.65,813.37,111.05z"/>
	<path class="st4" d="M652.55,344.46v80.11h283.46v-80.11H652.55z M802.25,116.44c-3.69-0.18-7.06-1.46-9.64-3.78
		c-2.68-2.41-4.35-5.72-4.96-9.69c-1.35,4.83-2.01,11.1-0.51,18.67C790.25,120.91,796.74,119.17,802.25,116.44z M745.05,227.17
		l-0.49,9.31l-0.01,0.18l5.33,18.56l16.73-1.4l7.04-9.69c0,0-20.29-8.48-22.43-9.74l1.11-5.03l14.7,4.42l6.82-8.6l-6.19-8.9
		l-11.41,0.88l0,0l-0.37,0.56c-1.28,1.88-4.08,2.38-6.51,2.38c-1.98,0-3.77-0.27-4.46-0.67c-2.26-1.8-5.27-4.39-8.16-6.94
		l0.18,12.23L745.05,227.17z M851.28,251.85l15.07-4.49l-11.09-14.76l0.8-17.91l-8.15,0.21c0.1,2.86,0.18,11.71,0.21,17.7
		l-11.76,14.76L851.28,251.85z M798.24,214.34l5.83,8.61l25.38-6.85l1.07-19.32l-7.16,0.23l1.14,11.88l-19.84-3.36L798.24,214.34z"
		/>
	<path class="st3" d="M783.22,76.34c-0.32,0.53-1.25,3.09-1.91,2.98c-3.46-0.55-8.63-1.19-12.16-1.82c-0.72-0.13-0.9-0.04-0.32,0.16
		c4.9,1.65,10.23,2.99,14.75,5.32c0.92,0.28,1.96-0.23,2.17-1.07c0.34-1.38-0.6-6.32-0.6-6.32L783.22,76.34z M790.74,97.26
		c-0.49,5.61,0.88,10.15,4.03,12.99c3.21,2.89,8.04,3.7,13.1,2.3C798.47,109.12,792.72,103.98,790.74,97.26z M822.84,81.43
		c-3.27,1.46-8.13,3.33-11.36,4.7c-0.62,0.26-2.13-2-2.58-2.43l-2.06-0.26c0,0,0.28,5.03,0.95,6.28c0.41,0.77,1.53,1,2.36,0.51
		c3.83-3.35,8.67-5.94,13.03-8.73C823.7,81.17,823.5,81.13,822.84,81.43z"/>
	<g>
		<path class="st2" d="M681.13,371.06c-0.49,0.88-1.23,1.58-2.24,2.12c-1,0.54-2.25,0.81-3.74,0.81h-2.76v6.55h-4.45v-18.25h7.2
			c1.46,0,2.69,0.25,3.69,0.75s1.76,1.2,2.26,2.08s0.75,1.9,0.75,3.04C681.86,369.22,681.61,370.18,681.13,371.06z M676.71,369.85
			c0.42-0.4,0.62-0.96,0.62-1.69s-0.21-1.29-0.62-1.69c-0.42-0.4-1.05-0.6-1.9-0.6h-2.42v4.58h2.42
			C675.66,370.45,676.29,370.25,676.71,369.85z"/>
		<path class="st2" d="M694,380.54l-3.8-6.89h-1.07v6.89h-4.45v-18.25h7.46c1.44,0,2.67,0.25,3.68,0.75s1.77,1.19,2.28,2.07
			c0.5,0.88,0.75,1.85,0.75,2.92c0,1.21-0.34,2.3-1.03,3.25s-1.69,1.63-3.03,2.03l4.21,7.23H694z M689.14,370.5h2.76
			c0.81,0,1.42-0.2,1.83-0.6c0.41-0.4,0.61-0.96,0.61-1.69c0-0.69-0.2-1.24-0.61-1.64c-0.41-0.4-1.02-0.6-1.83-0.6h-2.76V370.5z"/>
		<path class="st2" d="M706.08,379.52c-1.43-0.8-2.57-1.91-3.41-3.34c-0.84-1.43-1.26-3.04-1.26-4.82s0.42-3.39,1.26-4.81
			c0.84-1.42,1.98-2.53,3.41-3.33c1.43-0.8,3-1.2,4.72-1.2s3.29,0.4,4.72,1.2c1.43,0.8,2.56,1.91,3.38,3.33
			c0.82,1.42,1.24,3.03,1.24,4.81s-0.42,3.39-1.25,4.82c-0.83,1.43-1.96,2.54-3.38,3.34c-1.42,0.8-2.99,1.2-4.71,1.2
			S707.51,380.32,706.08,379.52z M714.29,375.21c0.88-0.97,1.31-2.25,1.31-3.85c0-1.61-0.44-2.9-1.31-3.86
			c-0.88-0.96-2.04-1.44-3.5-1.44c-1.47,0-2.65,0.48-3.52,1.43s-1.31,2.25-1.31,3.87c0,1.61,0.44,2.9,1.31,3.86s2.05,1.44,3.52,1.44
			C712.25,376.66,713.42,376.18,714.29,375.21z"/>
		<path class="st2" d="M740.25,362.28l-6.47,18.25h-5.56l-6.47-18.25h4.73l4.52,13.78l4.55-13.78H740.25z"/>
		<path class="st2" d="M747.06,365.85v3.69h5.95v3.43h-5.95v4h6.73v3.56h-11.18v-18.25h11.18v3.56H747.06z"/>
		<path class="st2" d="M773.53,380.54h-4.45l-7.44-11.26v11.26h-4.45v-18.25h4.45l7.44,11.31v-11.31h4.45V380.54z"/>
		<path class="st2" d="M777.69,366.56c0.78-1.41,1.87-2.51,3.26-3.3c1.4-0.79,2.98-1.18,4.75-1.18c2.17,0,4.02,0.57,5.56,1.72
			c1.54,1.14,2.57,2.7,3.09,4.68h-4.89c-0.36-0.76-0.88-1.34-1.55-1.74s-1.43-0.6-2.27-0.6c-1.37,0-2.48,0.48-3.33,1.43
			c-0.85,0.95-1.27,2.23-1.27,3.82c0,1.6,0.42,2.87,1.27,3.82c0.85,0.95,1.96,1.43,3.33,1.43c0.85,0,1.61-0.2,2.27-0.6
			c0.67-0.4,1.18-0.98,1.55-1.74h4.89c-0.52,1.98-1.55,3.53-3.09,4.67c-1.54,1.14-3.4,1.7-5.56,1.7c-1.77,0-3.35-0.39-4.75-1.18
			s-2.48-1.89-3.26-3.29c-0.78-1.4-1.17-3.01-1.17-4.81C776.52,369.58,776.91,367.97,777.69,366.56z"/>
		<path class="st2" d="M802.05,365.85v3.69h5.96v3.43h-5.96v4h6.73v3.56h-11.18v-18.25h11.18v3.56H802.05z"/>
		<path class="st2" d="M823.37,369.56v3.69h-11.44v-3.69H823.37z"/>
		<path class="st2" d="M839.15,377.31h-6.81l-1.09,3.22h-4.65l6.6-18.25h5.15l6.61,18.25h-4.71L839.15,377.31z M838.01,373.88
			l-2.26-6.68l-2.24,6.68H838.01z"/>
		<path class="st2" d="M851.92,377.1h5.82v3.43h-10.27v-18.25h4.45V377.1z"/>
		<path class="st2" d="M873.58,371.06c-0.48,0.88-1.23,1.58-2.24,2.12c-1,0.54-2.25,0.81-3.74,0.81h-2.76v6.55h-4.45v-18.25h7.2
			c1.46,0,2.69,0.25,3.69,0.75c1,0.5,1.76,1.2,2.26,2.08c0.5,0.88,0.75,1.9,0.75,3.04C874.31,369.22,874.06,370.18,873.58,371.06z
			 M869.16,369.85c0.42-0.4,0.62-0.96,0.62-1.69s-0.21-1.29-0.62-1.69c-0.42-0.4-1.05-0.6-1.9-0.6h-2.42v4.58h2.42
			C868.11,370.45,868.74,370.25,869.16,369.85z"/>
		<path class="st2" d="M881.59,365.85v3.69h5.95v3.43h-5.95v4h6.73v3.56h-11.18v-18.25h11.18v3.56H881.59z"/>
		<path class="st2" d="M894.74,380.07c-1.06-0.43-1.9-1.08-2.54-1.92c-0.63-0.85-0.97-1.87-1-3.07h4.73c0.07,0.68,0.3,1.19,0.7,1.55
			c0.4,0.36,0.92,0.53,1.56,0.53c0.66,0,1.18-0.15,1.56-0.46c0.38-0.3,0.57-0.72,0.57-1.26c0-0.45-0.15-0.82-0.46-1.12
			s-0.68-0.54-1.12-0.73c-0.44-0.19-1.07-0.41-1.88-0.65c-1.18-0.36-2.14-0.73-2.88-1.09c-0.75-0.36-1.39-0.9-1.92-1.61
			c-0.54-0.71-0.81-1.64-0.81-2.78c0-1.7,0.62-3.03,1.85-3.99s2.83-1.44,4.81-1.44c2.01,0,3.63,0.48,4.86,1.44s1.89,2.3,1.98,4.02
			h-4.81c-0.04-0.59-0.25-1.05-0.65-1.39s-0.91-0.51-1.53-0.51c-0.54,0-0.97,0.14-1.3,0.43c-0.33,0.29-0.49,0.7-0.49,1.24
			c0,0.59,0.28,1.05,0.83,1.38c0.55,0.33,1.42,0.69,2.6,1.07c1.18,0.4,2.13,0.78,2.87,1.14c0.74,0.36,1.37,0.89,1.91,1.59
			c0.54,0.69,0.81,1.59,0.81,2.68c0,1.04-0.27,1.98-0.79,2.83c-0.53,0.85-1.3,1.53-2.3,2.03c-1.01,0.5-2.19,0.75-3.56,0.75
			C896.99,380.72,895.8,380.5,894.74,380.07z"/>
		<path class="st2" d="M919.42,369.56v3.69h-11.44v-3.69H919.42z"/>
		<path class="st2" d="M707.35,392.78c0.78-1.41,1.87-2.51,3.26-3.3c1.4-0.79,2.98-1.18,4.75-1.18c2.17,0,4.02,0.57,5.56,1.72
			c1.54,1.14,2.57,2.7,3.09,4.68h-4.89c-0.36-0.76-0.88-1.34-1.55-1.74s-1.43-0.6-2.27-0.6c-1.37,0-2.48,0.48-3.33,1.43
			c-0.85,0.95-1.27,2.23-1.27,3.82c0,1.6,0.42,2.87,1.27,3.82c0.85,0.95,1.96,1.43,3.33,1.43c0.85,0,1.61-0.2,2.27-0.6
			c0.67-0.4,1.18-0.98,1.55-1.74h4.89c-0.52,1.98-1.55,3.53-3.09,4.67c-1.54,1.14-3.4,1.7-5.56,1.7c-1.77,0-3.35-0.39-4.75-1.18
			s-2.48-1.89-3.26-3.29c-0.78-1.4-1.17-3.01-1.17-4.81C706.18,395.8,706.57,394.19,707.35,392.78z"/>
		<path class="st2" d="M731.18,405.74c-1.43-0.8-2.57-1.91-3.41-3.34c-0.84-1.43-1.26-3.04-1.26-4.82s0.42-3.39,1.26-4.81
			c0.84-1.42,1.98-2.53,3.41-3.33c1.43-0.8,3-1.2,4.72-1.2s3.29,0.4,4.72,1.2c1.43,0.8,2.56,1.91,3.38,3.33
			c0.82,1.42,1.24,3.03,1.24,4.81s-0.42,3.39-1.25,4.82c-0.83,1.43-1.96,2.54-3.38,3.34c-1.42,0.8-2.99,1.2-4.71,1.2
			S732.61,406.54,731.18,405.74z M739.39,401.43c0.88-0.97,1.31-2.25,1.31-3.85c0-1.61-0.44-2.9-1.31-3.86
			c-0.88-0.96-2.04-1.44-3.5-1.44c-1.47,0-2.65,0.48-3.52,1.43s-1.31,2.25-1.31,3.87c0,1.61,0.44,2.9,1.31,3.86s2.05,1.44,3.52,1.44
			C737.35,402.88,738.52,402.4,739.39,401.43z M735.87,385.33l-4.03,2.13v-3.07l4.03-2.05l4.03,2.05v3.07L735.87,385.33z"/>
		<path class="st2" d="M761.35,388.5v3.56h-4.84v14.69h-4.45v-14.69h-4.84v-3.56H761.35z"/>
		<path class="st2" d="M768.55,392.07v3.69h5.95v3.43h-5.95v4h6.73v3.56h-11.18V388.5h11.18v3.56H768.55z"/>
		<path class="st2" d="M796.61,389.65c1.44,0.76,2.55,1.83,3.34,3.21c0.79,1.38,1.18,2.97,1.18,4.77c0,1.79-0.39,3.37-1.18,4.76
			c-0.79,1.39-1.91,2.46-3.35,3.22c-1.45,0.76-3.13,1.14-5.03,1.14h-6.84V388.5h6.84C793.49,388.5,795.17,388.89,796.61,389.65z
			 M795.2,401.53c0.94-0.92,1.4-2.22,1.4-3.9c0-1.68-0.47-2.99-1.4-3.93c-0.94-0.94-2.25-1.4-3.93-1.4h-2.11v10.61h2.11
			C792.96,402.91,794.27,402.45,795.2,401.53z"/>
		<path class="st2" d="M805.16,388.5h4.55l-2.91,6.97h-2.99L805.16,388.5z"/>
		<path class="st2" d="M824.19,403.53h-6.81l-1.09,3.22h-4.65l6.6-18.25h5.15l6.61,18.25h-4.71L824.19,403.53z M823.05,400.1
			l-2.26-6.68l-2.24,6.68H823.05z"/>
		<path class="st2" d="M837.24,403.12h7.85v3.64h-12.9v-3.38l7.8-11.23h-7.8v-3.64h12.9v3.38L837.24,403.12z"/>
		<path class="st2" d="M852.89,388.5v10.92c0,1.09,0.27,1.93,0.81,2.52c0.54,0.59,1.33,0.88,2.37,0.88c1.04,0,1.84-0.29,2.39-0.88
			c0.55-0.59,0.83-1.43,0.83-2.52V388.5h4.45v10.89c0,1.63-0.35,3.01-1.04,4.13c-0.69,1.13-1.62,1.98-2.79,2.55
			s-2.47,0.86-3.91,0.86s-2.73-0.28-3.86-0.84c-1.13-0.56-2.03-1.41-2.69-2.55c-0.66-1.13-0.99-2.52-0.99-4.15V388.5H852.89z"/>
		<path class="st2" d="M876.68,406.76l-3.79-6.89h-1.07v6.89h-4.45V388.5h7.46c1.44,0,2.67,0.25,3.68,0.75s1.77,1.19,2.28,2.07
			c0.5,0.88,0.75,1.85,0.75,2.92c0,1.21-0.34,2.3-1.03,3.25c-0.69,0.95-1.7,1.63-3.03,2.03l4.21,7.23H876.68z M871.82,396.72h2.76
			c0.81,0,1.43-0.2,1.83-0.6c0.41-0.4,0.61-0.96,0.61-1.69c0-0.69-0.2-1.24-0.61-1.64c-0.41-0.4-1.02-0.6-1.83-0.6h-2.76V396.72z"/>
	</g>
</g>
<path class="st1" d="M584.99,201.7c0-6.28,2.97-11.92,9.8-11.92c1.13,0,2.17,0.08,3.21,0.4l0.32-11.84
	c-0.88-0.08-1.85-0.16-2.73-0.16c-5.22,0-9.64,2.74-12.21,7.25l-0.16-6.2H572.3v41.87h12.69V201.7z M563.46,179.23h-12.69v41.87
	h12.69V179.23z M589.81,247.55l-3.7-8.53l-18.88,10.47l2.57,5.72L589.81,247.55z M432.84,217.88c3.05,2.74,7.63,4.27,11.97,4.27
	c11.49,0,19.52-9.82,19.52-22.63c0-12.24-6.75-21.26-17.51-21.26c-4.74,0-9.96,2.66-11.97,7.97v2.82c1.69-1.21,3.94-2.09,6.83-2.09
	c6.43,0,9.88,4.99,9.88,12c0,7.41-3.86,12.96-10.28,12.96c-3.37,0-6.51-1.53-8.44-4.27v-28.42h-12.69v56.36h12.69V217.88z
	 M348.16,221.1h12.69v-41.87h-12.69V221.1z M536.47,222.15c4.58,0,10.28-2.66,12.29-7.97v-2.82c-1.69,1.29-3.78,2.09-6.35,2.09
	c-5.86,0-8.11-3.87-8.11-9.98v-24.24h-12.69v25.52C521.61,215.06,525.62,222.15,536.47,222.15z M354.51,173.2
	c4.34,0,7.23-2.66,7.23-6.76c0-4.03-2.89-6.6-7.23-6.6c-4.26,0-7.23,2.58-7.23,6.6C347.28,170.54,350.25,173.2,354.51,173.2z
	 M236.42,258.74c-13.1,0-22.49,8.21-22.49,21.74c0,13.69,9.4,22.14,22.49,22.14c13.17,0,22.49-8.45,22.49-22.14
	C258.92,267.03,249.6,258.74,236.42,258.74z M236.42,292.32c-5.95,0-9.8-4.83-9.8-11.76c0-6.84,3.86-11.51,9.8-11.51
	c5.94,0,9.8,4.67,9.8,11.51C246.22,287.49,242.37,292.32,236.42,292.32z M514.86,200.01c0-13.45-9.32-21.74-22.49-21.74
	c-13.1,0-22.49,8.21-22.49,21.74c0,13.69,9.4,22.14,22.49,22.14C505.54,222.15,514.86,213.7,514.86,200.01z M492.37,211.84
	c-5.95,0-9.8-4.83-9.8-11.76c0-6.84,3.86-11.51,9.8-11.51s9.8,4.67,9.8,11.51C502.17,207.01,498.31,211.84,492.37,211.84z
	 M194,301.58h12.69v-41.87H194V301.58z M323.66,240.3c-4.26,0-7.23,2.58-7.23,6.6c0,4.11,2.97,6.76,7.23,6.76
	c4.34,0,7.23-2.66,7.23-6.76C330.89,242.88,328,240.3,323.66,240.3z M295.87,263.01c-3.05-2.74-7.63-4.27-11.89-4.27
	c-11.49,0-19.52,9.82-19.52,22.62c0,12.24,6.75,21.26,17.51,21.26c4.74,0,9.88-2.66,11.89-7.97v-2.82
	c-1.69,1.21-3.94,2.09-6.83,2.09c-6.35,0-9.8-4.99-9.8-12.08c0-7.33,3.86-12.88,10.28-12.88c3.37,0,6.43,1.53,8.36,4.27v28.42h12.69
	v-61.67h-12.69V263.01z M356.84,288.53l-10.52-28.82h-12.21l17.19,41.87h11.09l17.11-41.87h-12.21L356.84,288.53z M200.35,240.3
	c-4.26,0-7.23,2.58-7.23,6.6c0,4.11,2.97,6.76,7.23,6.76c4.34,0,7.23-2.66,7.23-6.76C207.58,242.88,204.69,240.3,200.35,240.3z
	 M395.73,178.35c-0.88-0.08-1.85-0.16-2.73-0.16c-5.22,0-9.64,2.74-12.21,7.25l-0.16-6.2h-10.93v41.87h12.69v-19.4
	c0-6.28,2.97-11.92,9.8-11.92c1.12,0,2.17,0.08,3.21,0.4L395.73,178.35z M317.32,301.58h12.69v-41.87h-12.69V301.58z M540.89,249.4
	H530.6l-1.77,10.31h-7.07v9.42h6.43v18.44c0,10.31,4.58,15.06,14.62,15.06c4.26,0,7.87-0.72,10.36-1.53l-0.32-9.74
	c-1.53,0.56-3.45,1.05-5.86,1.05c-4.26,0-6.1-2.26-6.1-7.25v-16.02h12.45v-9.42h-12.45V249.4z M510.04,240.3
	c-4.26,0-7.23,2.58-7.23,6.6c0,4.11,2.97,6.76,7.23,6.76c4.34,0,7.23-2.66,7.23-6.76C517.27,242.88,514.38,240.3,510.04,240.3z
	 M403.68,279.11c-2.25,0-4.9-0.48-6.83-1.61v2.74c2.81,3.62,7.07,5.07,11.57,5.07c7.07,0,14.22-3.78,14.22-11.67
	c0-11.19-9.48-14.9-19.04-14.9c-12.93,0-21.53,8.45-21.53,21.42c0,14.82,9.56,22.46,23.78,22.46c5.22,0,11.17-1.05,15.67-3.7
	l-1.36-8.78c-3.78,1.93-8.03,2.98-12.21,2.98c-8.51,0-13.66-4.03-13.66-12.88c0-6.04,2.57-12.4,9.48-12.4
	c3.86,0,7.31,1.61,7.31,5.88C411.07,277.66,406.89,279.11,403.68,279.11z M583.3,293.12c-8.51,0-13.66-4.03-13.66-12.88
	c0-6.04,2.57-12.4,9.48-12.4c3.86,0,7.31,1.61,7.31,5.88c0,3.94-4.18,5.39-7.39,5.39c-2.25,0-4.9-0.48-6.83-1.61v2.74
	c2.81,3.62,7.07,5.07,11.57,5.07c7.07,0,14.22-3.78,14.22-11.67c0-11.19-9.48-14.9-19.04-14.9c-12.93,0-21.53,8.45-21.53,21.42
	c0,14.82,9.56,22.46,23.78,22.46c5.22,0,11.17-1.05,15.67-3.7l-1.36-8.78C591.74,292.08,587.48,293.12,583.3,293.12z M503.69,301.58
	h12.69v-41.87h-12.69V301.58z M471.56,271.46c0-3.46,4.18-3.87,6.91-3.87c4.42,0,10.28,1.85,13.66,3.87l1.29-8.94
	c-4.58-2.5-9.72-3.78-14.94-3.78c-9.48,0-18.96,2.9-18.96,13.61c0,16.43,24.99,10.31,24.99,17.23c0,3.54-4.66,3.86-7.23,3.86
	c-5.78,0-11.57-1.13-16.71-4.03l-0.64,9.34c5.3,2.82,11.33,3.86,17.27,3.86c9.08,0,19.52-2.58,19.52-13.61
	C496.7,272.11,471.56,278.87,471.56,271.46z M441.03,265.91l-0.16-6.2h-10.93v41.87h12.69v-19.4c0-6.28,2.97-11.92,9.8-11.92
	c1.13,0,2.17,0.08,3.21,0.4l0.32-11.84c-0.88-0.08-1.85-0.16-2.73-0.16C448.02,258.66,443.6,261.4,441.03,265.91z M279.48,221.1
	h13.58l-24.34-60.87h-15.02l-24.42,60.87h13.58l4.82-12.64h26.99L279.48,221.1z M251.36,198.4l9.8-25.6l9.88,25.6H251.36z
	 M54.54,301.58h12.69v-61.59H54.54V301.58z M94.07,258.74c-5.06,0-10.12,0.97-14.7,3.54l1.2,9.02c3.62-2.25,7.71-3.3,11.81-3.3
	c5.46,0,9.8,2.5,9.8,8.62v0.72c-3.21-0.72-6.43-1.13-9.8-1.13c-9.64,0-18.4,3.3-18.4,13.29c0,7.57,5.38,13.12,13.34,13.12
	c5.3,0,10.77-2.58,13.01-8.37v-2.82c-1.93,1.45-5.06,2.42-8.03,2.42c-3.78,0-6.51-1.69-6.51-5.23c0-4.11,3.94-5.64,8.68-5.64
	c2.49,0,5.14,0.32,7.71,0.89v17.71h12.37v-23.75C114.55,264.38,106.52,258.74,94.07,258.74z M169.34,258.74
	c-4.74,0-9.96,2.66-11.97,7.97v2.82c1.69-1.21,3.94-2.09,6.83-2.09c6.43,0,9.88,4.99,9.88,12c0,7.41-3.86,12.96-10.28,12.96
	c-3.37,0-6.51-1.53-8.44-4.27v-48.15h-12.69v61.59h11.81l0.08-3.86c2.97,3.14,8.11,4.91,12.77,4.91c11.49,0,19.52-9.82,19.52-22.63
	C186.86,267.76,180.11,258.74,169.34,258.74z M339.33,214.66v-35.43h-11.81l-0.08,3.87c-3.37-3.22-8.27-4.83-12.61-4.83
	c-11.57,0-19.6,9.26-19.6,21.34c0,11.59,6.67,20.13,17.51,20.13c4.74,0,9.96-2.66,11.97-7.97v-2.82c-1.69,1.21-3.94,2.09-6.83,2.09
	c-6.43,0-9.88-4.51-9.88-10.87c0-6.68,3.86-11.67,10.36-11.67c3.29,0,6.43,1.53,8.36,4.19v23.67c0,7.89-6.99,10.06-13.66,10.06
	c-4.18,0-8.68-1.05-12.61-2.98l-1.05,9.74c5.06,2.33,10.61,3.38,16.23,3.38C330.49,236.56,339.33,230.44,339.33,214.66z"/>
</svg>
